<?xml version="1.0" encoding="utf-8"?><!-- Uploaded to: SVG Repo, www.svgrepo.com, Generator: SVG Repo Mixer Tools -->
<svg fill="#000000" width="800px" height="800px" viewBox="0 0 24 24" id="share-alt-2" data-name="Flat Color" xmlns="http://www.w3.org/2000/svg" class="icon flat-color"><path id="secondary" d="M15.3,17.65a1,1,0,0,1-.45-.11l-6.61-3.3a1,1,0,1,1,.89-1.79l6.61,3.3a1,1,0,0,1,.45,1.35A1,1,0,0,1,15.3,17.65Zm-6.62-6a1,1,0,0,1-.89-.55,1,1,0,0,1,.45-1.35l6.61-3.3a1,1,0,1,1,.89,1.79l-6.61,3.3A1,1,0,0,1,8.68,11.66Z" style="fill: rgb(44, 169, 188);"></path><path id="primary" d="M14,6a4,4,0,1,1,4,4A4,4,0,0,1,14,6Zm4,8a4,4,0,1,0,4,4A4,4,0,0,0,18,14ZM6,8a4,4,0,1,0,4,4A4,4,0,0,0,6,8Z" style="fill: rgb(0, 0, 0);"></path></svg>