<svg width="24" height="24" viewBox="0 0 24 24" fill="none" xmlns="http://www.w3.org/2000/svg">
<g clip-path="url(#clip0_151_1301)">
<path d="M2.7832 21L21.5332 3" stroke="white" stroke-width="1.5" stroke-linecap="round" stroke-linejoin="round"/>
<path d="M8.96484 19.051C9.94766 19.3562 10.9718 19.5077 12.0008 19.5C16.1008 19.569 20.2588 16.687 22.8248 13.863C23.1 13.5576 23.2522 13.1611 23.2522 12.75C23.2522 12.3389 23.1 11.9424 22.8248 11.637C21.8953 10.6172 20.8654 9.69356 19.7508 8.88" stroke="white" stroke-width="1.5" stroke-linecap="round" stroke-linejoin="round"/>
<path d="M14.4133 6.28195C13.6243 6.0856 12.8134 5.99083 12.0003 5.99995C7.96932 5.93295 3.80032 8.75195 1.17932 11.635C0.904199 11.9404 0.751953 12.3369 0.751953 12.748C0.751953 13.159 0.904199 13.5555 1.17932 13.861C1.97624 14.7333 2.84605 15.5363 3.77932 16.261" stroke="white" stroke-width="1.5" stroke-linecap="round" stroke-linejoin="round"/>
<path d="M8.25 12.75C8.24987 12.2575 8.34678 11.7698 8.53518 11.3148C8.72359 10.8598 8.99981 10.4463 9.34806 10.0981C9.6963 9.74981 10.1098 9.47359 10.5648 9.28518C11.0198 9.09678 11.5075 8.99987 12 9" stroke="white" stroke-width="1.5" stroke-linecap="round" stroke-linejoin="round"/>
<path d="M15.75 12.749C15.7501 13.2416 15.6532 13.7293 15.4648 14.1844C15.2764 14.6395 15.0002 15.053 14.652 15.4013C14.3038 15.7496 13.8903 16.026 13.4353 16.2145C12.9803 16.403 12.4925 16.5 12 16.5" stroke="white" stroke-width="1.5" stroke-linecap="round" stroke-linejoin="round"/>
</g>
<defs>
<clipPath id="clip0_151_1301">
<rect width="24" height="24" fill="white"/>
</clipPath>
</defs>
</svg>
